# xmcd
#
# Track frame offsets:
#	150
#	78038
#	158559
#	241879
#
# Disc length: 3363 seconds
#
# Revision: 1
# Processed by: cddbd v1.5.1PL0 Copyright (c) Steve Scherf et al.
# Submitted via: CDex 1.50Beta5
#
DISCID=1b0d2104
DTITLE=ruf - 奴隷市場
DYEAR=1900
DGENRE=
TTITLE0=第1話
TTITLE1=第2話
TTITLE2=第3話
TTITLE3=エクストラ トラック
EXTD=
EXTT0=
EXTT1=
EXTT2=
EXTT3=
PLAYORDER=
